<svg id="Camada_1" data-name="Camada 1" xmlns="http://www.w3.org/2000/svg" viewBox="0 0 2018.03 426.8"><defs><style>.cls-1{fill:#05a3d3;}.cls-2{fill:#3b348b;}</style></defs><polygon class="cls-1" points="0 62.81 74.09 62.81 74.09 214.61 263.33 0 365.6 0 0 426.8 0 62.81"/><path class="cls-2" d="M115.69,305.15,218.23,426.8h107.1L169.78,242Z"/><path class="cls-2" d="M585.44,232.52V215A113.54,113.54,0,0,0,471.89,101.47H360.77V426.8H424V338.59h39.56a57.07,57.07,0,0,1,57.07,57.08v24.79a57.73,57.73,0,0,1-.35,6.34h65.18V385.53A91.12,91.12,0,0,0,540,306.64,83.13,83.13,0,0,0,585.44,232.52Zm-121.9-68.65A57.08,57.08,0,0,1,520.61,221h0A57.07,57.07,0,0,1,463.54,278H424V163.87Z"/><polygon class="cls-2" points="824.61 169.11 824.61 101.47 701.4 101.47 668.78 101.47 636.17 101.47 636.17 426.8 668.78 426.8 701.4 426.8 824.61 426.8 824.61 359.15 701.4 359.15 701.4 281.04 817.76 281.04 817.76 213.4 701.4 213.4 701.4 169.11 824.61 169.11"/><polygon class="cls-2" points="1418.9 169.11 1418.9 101.47 1295.7 101.47 1263.08 101.47 1230.47 101.47 1230.47 426.8 1263.08 426.8 1295.7 426.8 1418.9 426.8 1418.9 359.15 1295.7 359.15 1295.7 281.04 1412.06 281.04 1412.06 213.4 1295.7 213.4 1295.7 169.11 1418.9 169.11"/><polygon class="cls-2" points="1120.14 101.47 1021.1 287.49 922.05 101.47 861.65 426.8 927.68 426.8 951.84 290.71 1021.1 426.8 1090.35 290.71 1114.51 426.8 1180.54 426.8 1120.14 101.47"/><polygon class="cls-2" points="1711.83 101.47 1711.83 426.8 1653.44 358.64 1528.82 213.2 1528.82 426.8 1470.43 426.8 1470.43 101.47 1525.22 101.47 1653.44 248.08 1653.44 101.47 1711.83 101.47"/><path class="cls-2" d="M1737.79,426.8h71.67l21.75-60.4h46.7V304l-24.57.1,24.57-52.42V101.47Q1807.86,264.13,1737.79,426.8Z"/><path class="cls-2" d="M2018,426.8h-71.67l-21.74-60.4h-46.71V304l24.57.1-24.57-52.42V101.47Q1948,264.13,2018,426.8Z"/></svg>